<svg width="30" height="33" viewBox="0 0 30 33" fill="none" xmlns="http://www.w3.org/2000/svg">
<path d="M5.40001 13.2999C5.39913 11.3053 6.01958 9.35994 7.17513 7.73414C8.33068 6.10834 9.96396 4.88284 11.848 4.22794C11.775 3.77084 11.8021 3.30334 11.9274 2.85772C12.0526 2.4121 12.273 1.99895 12.5735 1.64679C12.8739 1.29462 13.2471 1.01182 13.6674 0.817903C14.0877 0.623984 14.5451 0.52356 15.008 0.52356C15.4709 0.52356 15.9283 0.623984 16.3486 0.817903C16.7689 1.01182 17.1421 1.29462 17.4425 1.64679C17.743 1.99895 17.9634 2.4121 18.0886 2.85772C18.2139 3.30334 18.241 3.77084 18.168 4.22794C20.0491 4.88553 21.6789 6.11217 22.8314 7.73774C23.9839 9.36332 24.602 11.3073 24.6 13.2999V22.8999L29.4 26.0999V27.6999H0.600006V26.0999L5.40001 22.8999V13.2999ZM18.2 29.2999C18.2 30.1486 17.8629 30.9626 17.2627 31.5627C16.6626 32.1628 15.8487 32.4999 15 32.4999C14.1513 32.4999 13.3374 32.1628 12.7373 31.5627C12.1371 30.9626 11.8 30.1486 11.8 29.2999H18.2Z" fill="#141414"/>
</svg>
