<svg width="32" height="32" viewBox="0 0 32 32" fill="none" xmlns="http://www.w3.org/2000/svg">
<path d="M19.3333 24C18.4 24 17.6111 23.6777 16.9667 23.0333C16.3222 22.3888 16 21.6 16 20.6666C16 19.7333 16.3222 18.9444 16.9667 18.3C17.6111 17.6555 18.4 17.3333 19.3333 17.3333C20.2667 17.3333 21.0556 17.6555 21.7 18.3C22.3444 18.9444 22.6667 19.7333 22.6667 20.6666C22.6667 21.6 22.3444 22.3888 21.7 23.0333C21.0556 23.6777 20.2667 24 19.3333 24ZM6.66667 29.3333C5.93333 29.3333 5.30578 29.0724 4.784 28.5506C4.26222 28.0288 4.00089 27.4008 4 26.6666V7.99996C4 7.26663 4.26133 6.63907 4.784 6.11729C5.30667 5.59551 5.93422 5.33418 6.66667 5.33329H8V2.66663H10.6667V5.33329H21.3333V2.66663H24V5.33329H25.3333C26.0667 5.33329 26.6947 5.59463 27.2173 6.11729C27.74 6.63996 28.0009 7.26752 28 7.99996V26.6666C28 27.4 27.7391 28.028 27.2173 28.5506C26.6956 29.0733 26.0676 29.3342 25.3333 29.3333H6.66667ZM6.66667 26.6666H25.3333V13.3333H6.66667V26.6666Z" fill="#141414"/>
</svg>
