<svg width="32" height="32" viewBox="0 0 32 32" fill="none" xmlns="http://www.w3.org/2000/svg">
<path d="M16 14.2044C18.3368 14.2044 20.2311 12.334 20.2311 10.0267C20.2311 7.71933 18.3368 5.84888 16 5.84888C13.6633 5.84888 11.7689 7.71933 11.7689 10.0267C11.7689 12.334 13.6633 14.2044 16 14.2044Z" fill="#141414"/>
<path d="M9.58217 10.4444H10.0088V10.0622C10.0114 8.95072 10.325 7.86215 10.9141 6.91962C11.5032 5.9771 12.3442 5.21823 13.3422 4.72885C13.0467 4.04846 12.5725 3.46079 11.9699 3.02826C11.3673 2.59573 10.6588 2.33449 9.91968 2.27228C9.18053 2.21007 8.43834 2.34923 7.77192 2.67496C7.1055 3.00069 6.53975 3.50084 6.13476 4.12228C5.72976 4.74372 5.50064 5.46325 5.47174 6.20445C5.44283 6.94565 5.61522 7.68084 5.97059 8.33193C6.32596 8.98303 6.85104 9.52572 7.49007 9.90236C8.12909 10.279 8.8582 10.4755 9.59995 10.4711L9.58217 10.4444ZM22.0088 10.0266V10.4089H22.4355C23.1674 10.4015 23.8837 10.197 24.5092 9.81684C25.1346 9.43669 25.646 8.89496 25.9895 8.24868C26.333 7.60239 26.496 6.87545 26.4612 6.14437C26.4264 5.41329 26.1951 4.70511 25.7918 4.09437C25.3884 3.48364 24.8279 2.99294 24.1691 2.67392C23.5104 2.3549 22.7779 2.21936 22.0486 2.28157C21.3194 2.34378 20.6204 2.60143 20.0252 3.02742C19.43 3.4534 18.9607 4.03196 18.6666 4.70218C19.6649 5.18965 20.5069 5.9466 21.0975 6.8875C21.6881 7.8284 22.0038 8.91573 22.0088 10.0266ZM19.8133 14.6222C21.5806 14.972 23.2895 15.5705 24.8888 16.4C25.1142 16.5237 25.3182 16.6828 25.4933 16.8711H30.2222V13.8311C30.223 13.7145 30.192 13.5999 30.1325 13.4996C30.073 13.3993 29.9872 13.3172 29.8844 13.2622C27.5805 12.0571 25.0177 11.4317 22.4177 11.44H21.8311C21.523 12.6922 20.8145 13.8095 19.8133 14.6222ZM5.80439 18.5955C5.80277 18.1478 5.92367 17.7083 6.154 17.3244C6.38432 16.9405 6.71529 16.627 7.11106 16.4177C8.71042 15.5883 10.4193 14.9898 12.1866 14.64C11.1902 13.8342 10.4822 12.7269 10.1688 11.4844H9.58217C6.9822 11.4761 4.41937 12.1016 2.11551 13.3066C2.01272 13.3617 1.92693 13.4438 1.8674 13.544C1.80787 13.6443 1.77687 13.7589 1.77773 13.8755V19.5555H5.80439V18.5955ZM19.0755 23.7244H24.3733V24.9689H19.0755V23.7244Z" fill="#141414"/>
<path d="M29.1644 18.8978H23.0577V18.0089C23.0577 17.7732 22.9641 17.5471 22.7974 17.3804C22.6307 17.2137 22.4046 17.12 22.1688 17.12C21.9331 17.12 21.707 17.2137 21.5403 17.3804C21.3736 17.5471 21.2799 17.7732 21.2799 18.0089V18.8978H19.5555V16.3822C18.386 16.1367 17.1949 16.0086 15.9999 16C13.1944 15.9883 10.4289 16.666 7.94661 17.9734C7.83605 18.0307 7.74349 18.1175 7.67918 18.2242C7.61486 18.3309 7.58129 18.4532 7.58217 18.5778V23.5645H13.9022V28.9778C13.9022 29.2136 13.9958 29.4396 14.1625 29.6063C14.3292 29.773 14.5553 29.8667 14.7911 29.8667H29.1644C29.4001 29.8667 29.6262 29.773 29.7929 29.6063C29.9596 29.4396 30.0533 29.2136 30.0533 28.9778V19.7867C30.0533 19.5509 29.9596 19.3249 29.7929 19.1582C29.6262 18.9915 29.4001 18.8978 29.1644 18.8978ZM28.2755 28.1067H15.6799V20.6756H21.2799V21.4845C21.2799 21.7202 21.3736 21.9463 21.5403 22.113C21.707 22.2797 21.9331 22.3734 22.1688 22.3734C22.4046 22.3734 22.6307 22.2797 22.7974 22.113C22.9641 21.9463 23.0577 21.7202 23.0577 21.4845V20.6756H28.2755V28.1067Z" fill="#141414"/>
</svg>
