<svg width="32" height="32" viewBox="0 0 32 32" fill="none" xmlns="http://www.w3.org/2000/svg">
<path d="M10.6667 18.2V9.33329C10.6667 8.95551 10.7947 8.63907 11.0507 8.38396C11.3067 8.12885 11.6231 8.00085 12 7.99996H13.3333C13.7111 7.99996 14.028 8.12796 14.284 8.38396C14.54 8.63996 14.6676 8.9564 14.6667 9.33329V18.2L14.5 18.0333C13.9889 17.5444 13.3778 17.3 12.6667 17.3C11.9556 17.3 11.3444 17.5444 10.8333 18.0333L10.6667 18.2ZM17.3333 20.2V3.99996C17.3333 3.62218 17.4613 3.30574 17.7173 3.05063C17.9733 2.79552 18.2898 2.66751 18.6667 2.66663H20C20.3778 2.66663 20.6947 2.79463 20.9507 3.05063C21.2067 3.30663 21.3342 3.62307 21.3333 3.99996V16.2L17.3333 20.2ZM4 24.8V14.6666C4 14.2888 4.128 13.9724 4.384 13.7173C4.64 13.4622 4.95644 13.3342 5.33333 13.3333H6.66667C7.04444 13.3333 7.36133 13.4613 7.61733 13.7173C7.87333 13.9733 8.00089 14.2897 8 14.6666V20.8L4 24.8ZM7.2 28.0666C6.62222 28.0666 6.21644 27.7946 5.98267 27.2506C5.74889 26.7066 5.84356 26.2231 6.26667 25.8L11.7333 20.3333C11.9778 20.0888 12.2724 19.9555 12.6173 19.9333C12.9622 19.9111 13.2676 20.0222 13.5333 20.2666L17.3333 23.5333L24.8 16.0666H24C23.6222 16.0666 23.3058 15.9386 23.0507 15.6826C22.7956 15.4266 22.6676 15.1102 22.6667 14.7333C22.6667 14.3555 22.7947 14.0391 23.0507 13.784C23.3067 13.5288 23.6231 13.4008 24 13.4H28C28.3778 13.4 28.6947 13.528 28.9507 13.784C29.2067 14.04 29.3342 14.3564 29.3333 14.7333V18.7333C29.3333 19.1111 29.2053 19.428 28.9493 19.684C28.6933 19.94 28.3769 20.0675 28 20.0666C27.6222 20.0666 27.3058 19.9386 27.0507 19.6826C26.7956 19.4266 26.6676 19.1102 26.6667 18.7333V17.9333L18.3333 26.2666C18.0889 26.5111 17.7942 26.6444 17.4493 26.6666C17.1044 26.6888 16.7991 26.5777 16.5333 26.3333L12.7333 23.0666L8.13333 27.6666C8.02222 27.7777 7.88356 27.8724 7.71733 27.9506C7.55111 28.0288 7.37867 28.0675 7.2 28.0666Z" fill="#141414"/>
</svg>
