<svg width="32" height="33" viewBox="0 0 32 33" fill="none" xmlns="http://www.w3.org/2000/svg">
<path d="M8 6.5C6.93913 6.5 5.92172 6.92143 5.17157 7.67157C4.42143 8.42172 4 9.43913 4 10.5V10.902L16 17.364L28 10.904V10.5C28 9.43913 27.5786 8.42172 26.8284 7.67157C26.0783 6.92143 25.0609 6.5 24 6.5H8ZM28 13.174L16.474 19.38C16.3283 19.4584 16.1655 19.4995 16 19.4995C15.8345 19.4995 15.6717 19.4584 15.526 19.38L4 13.174V22.5C4 23.5609 4.42143 24.5783 5.17157 25.3284C5.92172 26.0786 6.93913 26.5 8 26.5H24C25.0609 26.5 26.0783 26.0786 26.8284 25.3284C27.5786 24.5783 28 23.5609 28 22.5V13.174Z" fill="black"/>
</svg>
