<svg width="24" height="25" viewBox="0 0 24 25" fill="none" xmlns="http://www.w3.org/2000/svg">
<path d="M15.5 14.5H14.71L14.43 14.23C15.0549 13.5039 15.5117 12.6487 15.7675 11.7256C16.0234 10.8024 16.072 9.83413 15.91 8.88998C15.44 6.10998 13.12 3.88997 10.32 3.54997C9.33559 3.42544 8.33576 3.52775 7.397 3.84906C6.45824 4.17038 5.60542 4.70219 4.90381 5.40381C4.20219 6.10542 3.67038 6.95824 3.34906 7.897C3.02775 8.83576 2.92544 9.83559 3.04997 10.82C3.38997 13.62 5.60998 15.94 8.38998 16.41C9.33413 16.572 10.3024 16.5234 11.2256 16.2675C12.1487 16.0117 13.0039 15.5549 13.73 14.93L14 15.21V16L18.25 20.25C18.66 20.66 19.33 20.66 19.74 20.25C20.15 19.84 20.15 19.17 19.74 18.76L15.5 14.5ZM9.49997 14.5C7.00997 14.5 4.99997 12.49 4.99997 9.99997C4.99997 7.50997 7.00997 5.49997 9.49997 5.49997C11.99 5.49997 14 7.50997 14 9.99997C14 12.49 11.99 14.5 9.49997 14.5Z" fill="#252525"/>
</svg>
