<svg width="32" height="32" viewBox="0 0 32 32" fill="none" xmlns="http://www.w3.org/2000/svg">
<path d="M18.956 4.6667C18.0322 4.22822 17.0225 4.00073 16 4.00073C14.9775 4.00073 13.9677 4.22822 13.044 4.6667L4.12266 8.84936C2.68799 9.52136 2.31332 11.4187 2.99999 12.7294V19.3334C2.99999 19.5986 3.10535 19.8529 3.29288 20.0405C3.48042 20.228 3.73477 20.3334 3.99999 20.3334C4.26521 20.3334 4.51956 20.228 4.7071 20.0405C4.89463 19.8529 4.99999 19.5986 4.99999 19.3334V14.2294L13.044 18C13.9677 18.4385 14.9775 18.666 16 18.666C17.0225 18.666 18.0322 18.4385 18.956 18L27.8773 13.8174C29.8187 12.908 29.8187 9.7587 27.8773 8.84936L18.956 4.6667Z" fill="#141414"/>
<path d="M6.66663 17.22V22.1666C6.66663 23.5106 7.33729 24.7693 8.51329 25.42C10.472 26.5066 13.6053 28 16 28C18.3946 28 21.528 26.5053 23.4866 25.4213C24.6626 24.7693 25.3333 23.5106 25.3333 22.168V17.22L19.8053 19.812C18.6158 20.3751 17.3161 20.6672 16 20.6672C14.6839 20.6672 13.3842 20.3751 12.1946 19.812L6.66663 17.22Z" fill="#141414"/>
</svg>
